<?xml version="1.0" encoding="utf-8"?>
<!-- Generator: Adobe Illustrator 16.0.0, SVG Export Plug-In . SVG Version: 6.00 Build 0)  -->
<!DOCTYPE svg PUBLIC "-//W3C//DTD SVG 1.0//EN" "http://www.w3.org/TR/2001/REC-SVG-20010904/DTD/svg10.dtd">
<svg version="1.0" id="BG" xmlns="http://www.w3.org/2000/svg" xmlns:xlink="http://www.w3.org/1999/xlink" x="0px" y="0px"
	 width="1152px" height="986px" viewBox="0 0 1152 986" enable-background="new 0 0 1152 986" xml:space="preserve">
<rect fill="#231F20" width="1152" height="986"/>
<g>
	<path fill-rule="evenodd" clip-rule="evenodd" fill="#FFFFFF" d="M273.901,533.017c-7.549,0-13.458,5.279-13.458,12.982
		c0,7.702,5.941,12.957,13.458,12.957c7.512,0,13.456-5.285,13.456-12.957C287.356,538.296,281.445,533.017,273.901,533.017
		L273.901,533.017L273.901,533.017L273.901,533.017z M273.901,555.246c-5.379,0-9.372-3.933-9.372-9.247
		c0-5.315,3.963-9.272,9.372-9.272c5.344,0,9.369,4.021,9.369,9.272C283.27,551.22,279.213,555.246,273.901,555.246L273.901,555.246
		L273.901,555.246L273.901,555.246z"/>
	<polygon fill-rule="evenodd" clip-rule="evenodd" fill="#FFFFFF" points="404.84,487.6 339.331,487.6 346.778,373.736 
		304.237,487.6 243.409,487.6 339.926,230.243 404.655,230.243 397.18,345.664 440.526,230.243 501.357,230.243 404.84,487.6 
		404.84,487.6 	"/>
	<polygon fill-rule="evenodd" clip-rule="evenodd" fill="#FFFFFF" points="412.738,487.6 509.255,230.243 570.086,230.243 
		473.569,487.6 412.738,487.6 412.738,487.6 	"/>
	<path fill-rule="evenodd" clip-rule="evenodd" fill="#FFFFFF" d="M236.393,398.889c-85.006,99.826-165.189,232.647-94.365,293.815
		c68.63,59.271,154.416,24.177,212.906,0.778c58.491-23.395,705.006-304.146,705.006-304.146c6.23-3.121,5.062-7.021-2.734-5.07
		c-3.15,0.788-703.832,190.678-703.832,190.678C264.467,599.9,163.084,545.503,236.393,398.889L236.393,398.889L236.393,398.889
		L236.393,398.889z"/>
	<path fill-rule="evenodd" clip-rule="evenodd" fill="#FFFFFF" d="M276.194,546.91c1.887-0.094,3.366-1.065,3.366-3.676
		c0-3.368-2.202-4.215-5.879-4.215l0,0h-5.285v13.958h3.524v-5.938h0.597l3.207,5.938h4.054L276.194,546.91L276.194,546.91
		L276.194,546.91z M273.931,544.646h-2.011v-3.239h1.696l0,0c1.038,0,2.234,0.129,2.234,1.48
		C275.85,544.334,275.156,544.646,273.931,544.646L273.931,544.646L273.931,544.646L273.931,544.646z"/>
	<path fill-rule="evenodd" clip-rule="evenodd" fill="#FFFFFF" d="M885.396,229.458c-7.549,0-13.463,5.283-13.463,12.985
		c0,7.705,5.943,12.955,13.463,12.955c7.509,0,13.453-5.283,13.453-12.955C898.85,234.741,892.936,229.458,885.396,229.458
		L885.396,229.458L885.396,229.458L885.396,229.458z M885.396,251.688c-5.38,0-9.372-3.93-9.372-9.245s3.963-9.275,9.372-9.275
		c5.34,0,9.361,4.024,9.361,9.275C894.758,247.661,890.706,251.688,885.396,251.688L885.396,251.688L885.396,251.688
		L885.396,251.688z"/>
	<path fill-rule="evenodd" clip-rule="evenodd" fill="#FFFFFF" d="M887.685,243.354c1.892-0.094,3.368-1.067,3.368-3.678
		c0-3.363-2.199-4.212-5.885-4.212l0,0h-5.279v13.958h3.526v-5.941h0.595l3.209,5.941h4.052L887.685,243.354L887.685,243.354
		L887.685,243.354z M885.426,241.091h-2.011v-3.24h1.694l0,0c1.04,0,2.229,0.126,2.229,1.479
		C887.338,240.776,886.654,241.091,885.426,241.091L885.426,241.091L885.426,241.091L885.426,241.091z"/>
	<path fill-rule="evenodd" clip-rule="evenodd" fill="#FFFFFF" d="M845.314,273.136l16.346-42.893h-121.89h-0.556h-63.163
		l-63.739,77.207l29.423-77.207h-61.608L484.388,487.6h60.828l40.874-107.622l2.804,107.622l186.649-0.406l17.762-49.508h-70.97
		l23.319-62.389h58.488l18-47.96h-58.498l20.061-54.201H845.314L845.314,273.136L845.314,273.136z M649.234,470.441l-3.893-134.137
		l91.972-100.979L649.234,470.441L649.234,470.441L649.234,470.441z"/>
</g>
<g>
</g>
<g>
</g>
<g>
</g>
<g>
</g>
<g>
</g>
<g>
</g>
<g>
</g>
<g>
</g>
<g>
</g>
<g>
</g>
<g>
</g>
<g>
</g>
<g>
</g>
<g>
</g>
<g>
</g>
</svg>
